<?xml version="1.0" encoding="utf-8"?>
<!-- Generator: Adobe Illustrator 19.0.0, SVG Export Plug-In . SVG Version: 6.00 Build 0)  -->
<svg version="1.1" id="Calque_1" xmlns="http://www.w3.org/2000/svg" xmlns:xlink="http://www.w3.org/1999/xlink" x="0px" y="0px"
	 viewBox="-81 8.9 372.5 370.5" style="enable-background:new -81 8.9 372.5 370.5;" xml:space="preserve">
<style type="text/css">
	.st0{fill:#F4A443;}
</style>
<g>
	<path class="st0" d="M140.5,170.5c-0.9,0.8-1.8,1.5-2.6,2.2c-7.3,6-18.4,11.9-27.9,16.7c-21.2,10.7-39.7,18.1-64.3,24.9
		c-11.3,3.1-27.2,4.6-37.1,3.6C-30,214-59.6,190.4-76,165c-1.5,9.4-2.3,19-2.3,28.8c0,41.9,14.2,80.4,38,111.2
		c2.8-3.6,5.6-7,8.7-10.1c39.7-40.1,99-39.3,142.7-73.1c15.9-12.3,30.8-30.2,45.4-46.2c-11.8,13.3-19.3,16.4-30.8,17.3
		c3.6-9.7,8.1-15.7,12.3-19.8C138.9,172.3,139.7,171.5,140.5,170.5z"/>
	<path class="st0" d="M178.1,155.7c0.8-0.6,1.5-1.3,2.1-2.1c2.1-3,4.3-7.5-3.6-3.1c-1.1,0.6-2,1.4-2.7,2.3
		C170,158,173.7,158.7,178.1,155.7z"/>
	<path class="st0" d="M103.6,11.9C13.8,11.9-60.7,77-75.5,162.6c10.2,9.2,19.9,20.9,35.5,26.1c17.9,6,37.6,2.9,50.8-3.7
		C8,169.2-6,157.7-21.5,146.8c28,6.3,43.1,25.8,59.8,40.4c16.2,1.6,30-1.6,44.6-5.9c21.9-6.6,46.1-17.4,62.4-32.9
		c5.3-5,12.1-12.2,15.6-17.9c9.4-15.5,10.9-32.1,13.6-45.5c1.6,19-0.4,42.1-14.7,64.8c4.2-2.8,8.9-5.5,13-8.4
		c14.4-10.2,25.9-18.6,40.3-29.4c5.1-3.9,15.5-14.4,21.1-12.1c5.3,2.2,4.6,13.2,3.8,18.4c-2.2,13.1-6.1,24.8-9.6,34.4
		c-10.5,29.2-24.9,55.9-38.6,82.6c-28.1,54.5-60.8,86.8-98.9,113.1C80.1,355.6,69,362.6,58.2,370c13.7,3.5,28.1,5.4,42.9,5.7
		c1.5-13.4,3.2-32.6,3.2-32.6l29.9-25.9c-4.9,19.9-7.6,40.2-14.6,57.9c93-8.1,165.9-86.1,165.9-181.2
		C285.6,93.4,204.1,11.9,103.6,11.9z"/>
</g>
</svg>
